<svg xmlns="http://www.w3.org/2000/svg" xmlns:xlink="http://www.w3.org/1999/xlink" width="48px" height="48px" viewBox="0 0 48 48" version="1.1">
<defs>
<linearGradient id="linear0" gradientUnits="userSpaceOnUse" x1="30.982" y1="21.203" x2="30.982" y2="43.514" gradientTransform="matrix(0.75,0,0,0.75,0,0)">
<stop offset="0" style="stop-color:rgb(42.745098%,78.039216%,100%);stop-opacity:1;"/>
<stop offset="1" style="stop-color:rgb(90.196078%,67.058824%,100%);stop-opacity:1;"/>
</linearGradient>
<linearGradient id="linear1" gradientUnits="userSpaceOnUse" x1="44.5" y1="16" x2="44.5" y2="49" gradientTransform="matrix(0.75,0,0,0.75,0,0)">
<stop offset="0" style="stop-color:rgb(10.196078%,42.745098%,100%);stop-opacity:1;"/>
<stop offset="1" style="stop-color:rgb(78.431373%,13.333333%,100%);stop-opacity:1;"/>
</linearGradient>
<linearGradient id="linear2" gradientUnits="userSpaceOnUse" x1="17.54" y1="15" x2="17.54" y2="50" gradientTransform="matrix(0.75,0,0,0.75,0,0)">
<stop offset="0" style="stop-color:rgb(10.196078%,42.745098%,100%);stop-opacity:1;"/>
<stop offset="1" style="stop-color:rgb(78.431373%,13.333333%,100%);stop-opacity:1;"/>
</linearGradient>
</defs>
<g id="surface1">
<path style=" stroke:none;fill-rule:nonzero;fill:url(#linear0);" d="M 34.320312 24.257812 L 42.722656 35.25 L 42.085938 35.25 C 41.296875 35.25 40.554688 34.882812 40.074219 34.257812 L 33.375 25.492188 L 26.671875 34.257812 C 26.195312 34.882812 25.453125 35.25 24.664062 35.25 L 24.027344 35.25 L 32.429688 24.257812 L 24.203125 13.5 L 24.839844 13.5 C 25.628906 13.5 26.371094 13.867188 26.851562 14.492188 L 33.375 23.027344 L 39.902344 14.492188 C 40.378906 13.867188 41.121094 13.5 41.910156 13.5 L 42.546875 13.5 Z M 21.394531 30 L 21.875 30 C 20.113281 34.5625 14.90625 37.222656 9.953125 35.441406 C 6.160156 34.078125 3.75 30.332031 3.75 26.304688 L 3.75 22.125 C 3.75 16.65625 8.453125 12.269531 14.027344 12.792969 C 18.886719 13.25 22.5 17.519531 22.5 22.398438 L 22.5 25.5 L 5.25 25.5 L 5.25 26.332031 C 5.25 29.707031 7.253906 32.859375 10.425781 34.019531 C 14.03125 35.332031 17.800781 33.839844 19.714844 30.929688 C 20.089844 30.359375 20.710938 30 21.394531 30 Z M 5.25 24 L 21 24 L 21 22.125 C 21 17.78125 17.46875 14.25 13.125 14.25 C 8.78125 14.25 5.25 17.78125 5.25 22.125 Z M 5.25 24 "/>
<path style=" stroke:none;fill-rule:nonzero;fill:url(#linear1);" d="M 42.546875 13.5 L 34.320312 24.261719 L 42.722656 35.25 L 42.085938 35.25 C 41.296875 35.25 40.554688 34.882812 40.074219 34.257812 L 33.375 25.492188 L 26.671875 34.257812 C 26.195312 34.882812 25.453125 35.25 24.664062 35.25 L 24.027344 35.25 L 32.429688 24.261719 L 24.203125 13.5 L 24.839844 13.5 C 25.628906 13.5 26.371094 13.867188 26.851562 14.492188 L 33.375 23.027344 L 39.902344 14.492188 C 40.378906 13.867188 41.121094 13.5 41.910156 13.5 L 42.546875 13.5 M 45.582031 12 L 41.910156 12 C 40.660156 12 39.464844 12.589844 38.707031 13.582031 L 33.375 20.554688 L 28.042969 13.582031 C 27.285156 12.589844 26.085938 12 24.839844 12 L 21.167969 12 L 23.011719 14.410156 L 30.542969 24.261719 L 22.835938 34.339844 L 20.992188 36.75 L 24.664062 36.75 C 25.910156 36.75 27.109375 36.160156 27.867188 35.167969 L 33.375 27.964844 L 38.882812 35.167969 C 39.640625 36.160156 40.839844 36.75 42.085938 36.75 L 45.757812 36.75 L 43.914062 34.339844 L 36.207031 24.257812 L 43.738281 14.410156 Z M 45.582031 12 "/>
<path style=" stroke:none;fill-rule:nonzero;fill:url(#linear2);" d="M 13.125 12.75 C 13.421875 12.75 13.726562 12.765625 14.027344 12.792969 C 18.886719 13.25 22.5 17.519531 22.5 22.398438 L 22.5 25.5 L 5.25 25.5 L 5.25 26.332031 C 5.25 29.707031 7.253906 32.859375 10.425781 34.019531 C 11.324219 34.347656 12.234375 34.5 13.125 34.5 C 15.796875 34.5 18.277344 33.113281 19.714844 30.929688 C 20.089844 30.359375 20.710938 30 21.394531 30 L 21.875 30 C 20.488281 33.589844 16.972656 36 13.125 36 C 12.078125 36 11.011719 35.820312 9.953125 35.441406 C 6.160156 34.078125 3.75 30.332031 3.75 26.304688 L 3.75 22.125 C 3.75 16.957031 7.957031 12.75 13.125 12.75 M 5.25 24 L 21 24 L 21 22.125 C 21 17.78125 17.46875 14.25 13.125 14.25 C 8.78125 14.25 5.25 17.78125 5.25 22.125 L 5.25 24 M 13.125 11.25 C 10.222656 11.25 7.492188 12.382812 5.4375 14.4375 C 3.382812 16.492188 2.25 19.222656 2.25 22.125 L 2.25 26.304688 C 2.25 31.066406 5.140625 35.304688 9.445312 36.851562 C 10.636719 37.28125 11.875 37.5 13.125 37.5 C 17.589844 37.5 21.667969 34.703125 23.273438 30.539062 L 24.0625 28.5 L 21.394531 28.5 C 20.222656 28.5 19.125 29.101562 18.464844 30.105469 C 17.289062 31.890625 15.242188 33 13.125 33 C 12.386719 33 11.648438 32.867188 10.9375 32.609375 C 8.632812 31.765625 7.023438 29.5625 6.78125 27 L 24 27 L 24 22.398438 C 24 16.695312 19.679688 11.816406 14.167969 11.300781 C 13.824219 11.265625 13.472656 11.25 13.125 11.25 Z M 6.75 22.5 L 6.75 22.125 C 6.75 18.609375 9.609375 15.75 13.125 15.75 C 16.640625 15.75 19.5 18.609375 19.5 22.125 L 19.5 22.5 Z M 6.75 22.5 "/>
</g>
</svg>
