<?xml version="1.0" encoding="UTF-8"?>
<svg xmlns="http://www.w3.org/2000/svg" xmlns:xlink="http://www.w3.org/1999/xlink" width="188px" height="48px" viewBox="0 0 188 48" version="1.1">
<g id="surface1">
<path style=" stroke:none;fill-rule:nonzero;fill:rgb(30.196078%,56.470588%,99.607843%);fill-opacity:1;" d="M 60.097656 1.460938 C 57.035156 2.941406 54.738281 5.433594 53.058594 8.261719 C 50.363281 3.722656 46.074219 0.0390625 39.578125 0.0390625 C 33.082031 0.0390625 25.117188 5.558594 25.117188 14.882812 C 25.117188 24.320312 32.984375 28.792969 36.882812 31.320312 C 41.050781 34.015625 48.15625 38.921875 53.058594 48 C 57.960938 38.921875 65.070312 34.015625 69.238281 31.320312 C 72.164062 29.417969 77.339844 26.421875 79.726562 21.039062 Z M 59.863281 21.574219 L 59.863281 3.839844 L 77.585938 21.574219 Z M 59.863281 21.574219 "/>
<path style=" stroke:none;fill-rule:nonzero;fill:rgb(100%,100%,100%);fill-opacity:1;" d="M 59.863281 21.574219 L 59.863281 3.839844 L 77.585938 21.574219 Z M 59.863281 21.574219 "/>
<path style=" stroke:none;fill-rule:nonzero;fill:rgb(0%,0%,0%);fill-opacity:1;" d="M 0 37.734375 L 2.199219 37.734375 C 2.894531 37.734375 3.699219 36.769531 3.699219 36.125 L 3.699219 12.785156 C 3.699219 12.140625 2.894531 11.230469 2.199219 11.230469 L 0 11.230469 L 0 5.59375 L 17.636719 5.59375 L 17.636719 11.230469 L 15.386719 11.230469 C 14.6875 11.230469 13.9375 12.140625 13.9375 12.785156 L 13.9375 36.125 C 13.9375 36.769531 14.6875 37.734375 15.386719 37.734375 L 17.636719 37.734375 L 17.636719 43.152344 L 0 43.152344 Z M 82.363281 37.824219 L 84.585938 37.824219 C 85.289062 37.824219 86.101562 36.847656 86.101562 36.199219 L 86.101562 12.628906 C 86.101562 11.980469 85.289062 11.058594 84.585938 11.058594 L 82.363281 11.058594 L 82.363281 5.367188 L 100.175781 5.367188 L 100.175781 11.058594 L 97.902344 11.058594 C 97.199219 11.058594 96.441406 11.980469 96.441406 12.628906 L 96.441406 36.199219 C 96.441406 36.847656 97.199219 37.824219 97.902344 37.824219 L 100.175781 37.824219 L 100.175781 43.296875 L 82.363281 43.296875 Z M 103.914062 37.824219 L 105.753906 37.824219 C 106.511719 37.824219 107.324219 36.847656 107.324219 36.199219 L 107.324219 12.628906 C 107.324219 11.980469 106.511719 11.058594 105.753906 11.058594 L 103.914062 11.058594 L 103.914062 5.367188 L 121.886719 5.367188 L 127.789062 27.367188 L 127.949219 27.367188 L 133.90625 5.367188 L 151.824219 5.367188 L 151.824219 11.058594 L 149.929688 11.058594 C 149.226562 11.058594 148.414062 11.980469 148.414062 12.628906 L 148.414062 36.199219 C 148.414062 36.847656 149.226562 37.824219 149.929688 37.824219 L 151.824219 37.824219 L 151.824219 43.296875 L 134.824219 43.296875 L 134.824219 37.824219 L 138.234375 37.824219 L 138.234375 13.0625 L 138.074219 13.0625 L 129.679688 43.296875 L 123.183594 43.296875 L 114.902344 13.0625 L 114.738281 13.0625 L 114.738281 37.824219 L 118.3125 37.824219 L 118.3125 43.296875 L 103.914062 43.296875 Z M 152.582031 24.550781 C 152.582031 11.925781 159.730469 4.878906 171.421875 4.878906 C 174.183594 4.878906 176.40625 5.152344 177.597656 5.367188 L 184.851562 5.367188 L 184.851562 17.832031 L 178.136719 17.832031 L 177.109375 12.304688 C 176.078125 11.925781 174.457031 11.601562 172.507812 11.601562 C 167.253906 11.601562 163.519531 15.121094 163.519531 24.117188 C 163.519531 32.730469 166.0625 37.335938 171.53125 37.335938 C 173.425781 37.335938 174.457031 37.175781 175.539062 36.847656 L 175.539062 30.183594 L 172.289062 30.183594 L 172.289062 24.660156 L 188.097656 24.660156 L 188.097656 30.238281 L 187.015625 30.238281 C 186.257812 30.238281 185.5 31.214844 185.5 31.863281 L 185.5 43.296875 L 180.246094 43.296875 C 180.246094 43.296875 179.761719 42.160156 178.730469 42.160156 C 176.78125 43.132812 174.183594 43.785156 170.882812 43.785156 C 159.027344 43.785156 152.582031 37.011719 152.582031 24.550781 Z M 152.582031 24.550781 "/>
</g>
</svg>
